<svg xmlns="http://www.w3.org/2000/svg" width="117" height="122" viewBox="0 0 117 122">
  <g id="Group_8" data-name="Group 8" transform="translate(305 -60)">
    <g id="Back_of_badge" data-name="Back of badge" transform="translate(-305 60)">
      <rect id="Rectangle_395" data-name="Rectangle 395" width="117" height="96" fill="#121212"/>
      <path id="Polygon_1" data-name="Polygon 1" d="M58.5,0,117,26H0Z" transform="translate(117 122) rotate(180)" fill="#121212"/>
    </g>
    <g id="Logo" transform="translate(-296.823 60)">
      <path id="Path_204" data-name="Path 204" d="M68.932,131.519l-45.1-19.679a6.223,6.223,0,0,1-3.728-5.7V23.728A3.719,3.719,0,0,1,23.828,20h93.191a3.719,3.719,0,0,1,3.728,3.728v82.428a6.223,6.223,0,0,1-3.728,5.7l-45.1,19.663A3.692,3.692,0,0,1,68.932,131.519Z" transform="translate(-20.1 -20)" fill="#121212"/>
      <path id="Path_206" data-name="Path 206" d="M69.686,108.312l5.25-3.805H68.444l-2-6.182-2,6.182H57.944l5.25,3.805-2,6.166,5.25-3.821,5.25,3.821ZM94.149,47.241V53.9h3.588V47.163l6.772-10.282H100.44l-4.473,7.378-4.489-7.378H87.362ZM67.605,53.919h3.51V47.66c0-.932-.047-3.091-.047-3.743.249.637.792,1.848,1.258,2.827l3.634,7.564L79.6,46.744c.466-.979,1.01-2.19,1.258-2.827,0,.652-.047,2.827-.047,3.743v6.259H84.4V36.881H80.869L77.25,44.6c-.466.979-.979,2.221-1.211,2.842-.233-.606-.761-1.895-1.227-2.842l-3.743-7.719H67.605Zm-19.135,0h3.588V47.784h3.619l3.2,6.135h4.116L59.56,47.3a4.874,4.874,0,0,0,3.433-5.017c0-3.634-2.8-5.405-6.182-5.405H48.454V53.919ZM59.3,42.364c0,1.476-.9,2.221-2.563,2.221H52.042V40.2h4.691C58.333,40.189,59.3,40.826,59.3,42.364ZM27.844,53.919H31.7l1.4-3.79h6.554l1.4,3.79h3.945l-6.8-17.038H34.709Zm10.577-7.036h-4.1l2.05-5.747Zm67.16-13.73H27.3V31.6h78.281Zm0,58.85H27.3v1.553h78.281Z" transform="translate(-16.117 -13.583)" fill="#ffd530"/>
      <path id="Path_207" data-name="Path 207" d="M97.262,78.76H92.4V62.467H97.5c4.66,0,8.108,2.19,8.108,8.154C105.6,76.337,101.456,78.76,97.262,78.76Zm.124-13.14H95.662v9.956h1.6c3.417,0,4.986-2,4.986-4.986C102.248,67.282,100.834,65.62,97.386,65.62ZM85.411,78.76l-2.92-5.871H79.214V78.76H75.952V62.467h7.6c3.075,0,5.607,1.693,5.607,5.172a4.669,4.669,0,0,1-3.122,4.8l3.122,6.337H85.411ZM83.47,65.62H79.214v4.194H83.47c1.507,0,2.33-.7,2.33-2.112C85.8,66.226,84.914,65.62,83.47,65.62ZM70.081,78.76l-1.274-3.634H62.844L61.554,78.76H58.075l6.244-16.293h3.169l6.2,16.293Zm-3.433-9.692c-.326-.963-.652-1.926-.808-2.532-.155.606-.5,1.584-.823,2.532l-1.056,2.951h3.728Zm-16.557,9.94c-3.93,0-6.586-2.656-6.586-7.409V62.467h3.262v9.1c0,2.609,1.258,4.256,3.324,4.256s3.355-1.6,3.355-4.209V62.467h3.262v9.1C56.708,76.291,54.239,79.009,50.092,79.009Zm-15.718,0c-4.256,0-7.114-3.262-7.114-8.4,0-4.955,2.982-8.4,7.238-8.4a6.062,6.062,0,0,1,6.166,4.069l-3.091,1.289a3.163,3.163,0,0,0-3.122-2.112c-2.438,0-3.836,2.143-3.836,5.172,0,3,1.413,5.219,3.867,5.219,2.237,0,3-1.041,3.184-2.47H35.088V70.326h5.84V72.47C40.928,76.632,38.148,79.009,34.374,79.009Zm63.059-30.6h2.174V56.7h5.452V58.74H97.433Zm-7.89,0h2.112L95.787,58.74H93.395l-.854-2.3H88.564l-.854,2.3H85.38Zm1.01,2.578L89.31,54.468h2.485ZM74.819,48.411H76.9l3.852,5.467c.264.388.621.9.761,1.165,0-.388-.031-1.677-.031-2.252V48.426h2.143V58.74H81.684L77.692,53.1c-.264-.388-.621-.9-.761-1.165,0,.388.031,1.677.031,2.252V58.74H74.819Zm-6.663-.171c2.967,0,4.722,2.19,4.722,5.327s-1.755,5.327-4.722,5.327-4.722-2.19-4.722-5.327S65.189,48.24,68.155,48.24Zm0,2.05c-1.755,0-2.485,1.429-2.485,3.277s.73,3.277,2.485,3.277,2.485-1.429,2.485-3.277S69.91,50.29,68.155,50.29Zm-9.133-1.879H61.2V58.74H59.023Zm-10.531,0H56.91v2.035H53.788V58.74H51.614V50.446H48.492Zm-5.871,0h2.112L48.865,58.74H46.473l-.854-2.3H41.643l-.854,2.3h-2.33Zm1.01,2.578-1.243,3.479h2.485ZM27.866,48.411h2.081L33.8,53.878c.264.388.621.9.761,1.165,0-.388-.031-1.677-.031-2.252V48.426h2.143V58.74H34.731L30.739,53.1c-.264-.388-.621-.9-.761-1.165,0,.388.031,1.677.031,2.252V58.74H27.866Z" transform="translate(-16.139 -4.378)" fill="#fff"/>
      <path id="Path_205" data-name="Path 205" d="M40.059,31.288,37.449,27.4c-.171-.264-.4-.621-.5-.808,0,.264.016,1.165.016,1.553v3.137h-1.4V24.174h1.367l2.516,3.759c.171.264.4.621.5.808,0-.264-.016-1.165-.016-1.553V24.174h1.4v7.114Zm3.06,0V24.174h4.939v1.4H44.532V26.8h2.05v1.382h-2.05v1.724H48.2v1.4H43.118Zm12.5,0h-1.4l-.87-3.666c-.109-.419-.2-.963-.249-1.227a10.884,10.884,0,0,1-.233,1.227l-.9,3.666H50.636l-1.491-7.114h1.491l.621,3.464c.062.342.14.87.171,1.165.047-.3.155-.823.249-1.165l.839-3.464h1.243l.839,3.464c.078.342.186.87.249,1.165.031-.3.109-.839.171-1.165l.621-3.464H57.1Zm9.195-2.827v2.811H63.388v-2.78L60.7,24.159h1.631l1.01,1.693c.249.419.637,1.134.777,1.4.14-.264.513-.947.777-1.4l1.01-1.693h1.615ZM70.983,31.4c-1.864,0-3.137-1.367-3.137-3.666S69.134,24.05,71,24.05c1.848,0,3.122,1.367,3.122,3.666S72.831,31.4,70.983,31.4Zm-.016-5.933c-.994,0-1.662.808-1.662,2.252S70,29.983,71,29.983s1.662-.808,1.662-2.252S71.961,25.463,70.967,25.463Zm8.667,5.824L78.36,28.725H76.931v2.563H75.5V24.174h3.308a2.207,2.207,0,0,1,2.454,2.252,2.019,2.019,0,0,1-1.367,2.1l1.367,2.765H79.634ZM78.8,25.557H76.931v1.833H78.8c.668,0,1.01-.311,1.01-.932C79.8,25.821,79.416,25.557,78.8,25.557Zm8.418,5.731-1.926-3.433-1.134,1.336v2.1H82.725V24.174h1.429v2.019c0,.264-.016.9-.016,1.134.109-.171.373-.481.559-.714l1.988-2.423h1.724l-2.081,2.454,2.609,4.66H87.213Z" transform="translate(-11.542 -17.76)" fill="#fff"/>
    </g>
  </g>
</svg>
