<svg xmlns="http://www.w3.org/2000/svg" width="327.868" height="430.979" viewBox="0 0 327.868 430.979">
  <g id="mos-card" transform="translate(0 -0.05)">
    <path id="Path_212" data-name="Path 212" d="M327.868,25.064C327.841,17.291,323.3,11.008,317.71,11H227.929c-5.616,0-10.168,6.328-10.168,14.133h0c0,13.9-8.105,25.163-18.1,25.163H22.921C10.266,50.3.006,64.552,0,82.143V410.12c0,17.6,10.262,31.86,22.921,31.86H304.948c12.659,0,22.921-14.264,22.921-31.86V81.15h0ZM300.824,377.9c-.028,14.615-8.544,26.453-19.059,26.492H46.1c-10.534,0-19.081-11.849-19.109-26.492V157.018c0-14.669,8.555-26.561,19.109-26.561H281.765c10.534.039,19.059,11.919,19.059,26.561Z" transform="translate(0 -10.95)" fill="#131313"/>
    <path id="Path_213" data-name="Path 213" d="M259,16.52h2.42V33.44h-2.73V22.25l-4.47,8.45h-2.06l-4.49-8.33V33.44h-2.74V16.52h2.45l5.8,11.06Z" transform="translate(1.478 -10.95)" fill="#ffd531"/>
    <path id="Path_214" data-name="Path 214" d="M268.31,32.6a7.15,7.15,0,0,1-2.8-3,10.13,10.13,0,0,1-1-4.61,10.15,10.15,0,0,1,1-4.59,7,7,0,0,1,2.79-3,8.39,8.39,0,0,1,4.3-1.06,8.26,8.26,0,0,1,4.28,1.06,7,7,0,0,1,2.79,3,10.15,10.15,0,0,1,1,4.59,10.27,10.27,0,0,1-1,4.61,7.15,7.15,0,0,1-2.8,3,9.21,9.21,0,0,1-8.54,0Zm7.92-3a7.15,7.15,0,0,0,1.3-4.61,7.07,7.07,0,0,0-1.3-4.59,5,5,0,0,0-7.3,0,7.07,7.07,0,0,0-1.31,4.6,7.15,7.15,0,0,0,1.31,4.61,4.94,4.94,0,0,0,7.3,0Z" transform="translate(1.868 -10.95)" fill="#ffd531"/>
    <path id="Path_215" data-name="Path 215" d="M285.84,33.12A8.34,8.34,0,0,1,283,31.64l1-2.26a8.7,8.7,0,0,0,2.58,1.37,9.59,9.59,0,0,0,2.94.43,5,5,0,0,0,2.7-.61,1.94,1.94,0,0,0,1-1.72,1.58,1.58,0,0,0-.88-1.46,10.79,10.79,0,0,0-2.91-1,17.71,17.71,0,0,1-3.44-1.06,4.88,4.88,0,0,1-2-1.53,4.06,4.06,0,0,1-.67-2.38,4.51,4.51,0,0,1,.82-2.66,5.31,5.31,0,0,1,2.3-1.84,8.4,8.4,0,0,1,3.43-.66,10.6,10.6,0,0,1,3.39.54,7.31,7.31,0,0,1,2.64,1.48l-1,2.25a7.79,7.79,0,0,0-5-1.8,4.46,4.46,0,0,0-2.58.66,2.12,2.12,0,0,0-.95,1.84,1.69,1.69,0,0,0,.84,1.51,9.89,9.89,0,0,0,2.86,1,19.29,19.29,0,0,1,3.47,1.07,5.08,5.08,0,0,1,2,1.5,3.68,3.68,0,0,1,.71,2.31,4.47,4.47,0,0,1-.81,2.65A5,5,0,0,1,293.08,33a9.61,9.61,0,0,1-3.59.61A12,12,0,0,1,285.84,33.12Z" transform="translate(1.868 -10.95)" fill="#ffd531"/>
  </g>
</svg>
