<svg xmlns="http://www.w3.org/2000/svg" width="327.869" height="418.98" viewBox="0 0 327.869 418.98">
  <g id="mos-card" transform="translate(-63.531 151.429)">
    <g id="Group_8" data-name="Group 8">
      <path id="Path_212" data-name="Path 212" d="M391.4-137.365c-.027-7.773-4.568-14.055-10.158-14.064H291.46c-5.616,0-10.168,6.328-10.168,14.134,0,13.9-8.1,13.162-18.1,13.162H86.452c-12.655.005-22.915,14.256-22.921,31.847V235.691c0,17.6,10.262,31.86,22.921,31.86H368.479c12.659,0,22.921-14.264,22.921-31.86V-137.365Zm-26.96,350.728A16.633,16.633,0,0,1,347.806,230H107.072a16.633,16.633,0,0,1-16.633-16.633V-27.371A16.633,16.633,0,0,1,107.072-44H347.806a16.633,16.633,0,0,1,16.633,16.633Z" fill="#101010"/>
    </g>
    <path id="Path_213" data-name="Path 213" d="M324.009-145.908h2.42v16.919H323.7v-11.189l-4.47,8.45h-2.06l-4.49-8.33v11.069h-2.74v-16.919h2.45l5.8,11.06Z" fill="#ffca1a"/>
    <path id="Path_214" data-name="Path 214" d="M333.709-129.829a7.147,7.147,0,0,1-2.8-3,10.135,10.135,0,0,1-1-4.61,10.162,10.162,0,0,1,1-4.59,7.011,7.011,0,0,1,2.79-3,8.4,8.4,0,0,1,4.3-1.06,8.264,8.264,0,0,1,4.28,1.06,7,7,0,0,1,2.79,3,10.136,10.136,0,0,1,1,4.59,10.259,10.259,0,0,1-1,4.61,7.135,7.135,0,0,1-2.8,3,9.207,9.207,0,0,1-8.54,0Zm7.92-3a7.142,7.142,0,0,0,1.3-4.61,7.07,7.07,0,0,0-1.3-4.59,5,5,0,0,0-7.067-.232c-.08.075-.158.152-.233.232a7.077,7.077,0,0,0-1.31,4.6,7.157,7.157,0,0,0,1.31,4.611,4.941,4.941,0,0,0,6.979.321c.112-.1.219-.21.321-.321Z" fill="#ffca1a"/>
    <path id="Path_215" data-name="Path 215" d="M351.239-129.308a8.368,8.368,0,0,1-2.84-1.48l1-2.26a8.724,8.724,0,0,0,2.58,1.37,9.608,9.608,0,0,0,2.94.43,5.008,5.008,0,0,0,2.7-.61,1.939,1.939,0,0,0,1-1.72,1.578,1.578,0,0,0-.88-1.46,10.752,10.752,0,0,0-2.91-1,17.777,17.777,0,0,1-3.44-1.06,4.892,4.892,0,0,1-2-1.53,4.07,4.07,0,0,1-.67-2.381,4.514,4.514,0,0,1,.82-2.66,5.329,5.329,0,0,1,2.3-1.84,8.43,8.43,0,0,1,3.43-.66,10.61,10.61,0,0,1,3.39.541,7.281,7.281,0,0,1,2.64,1.48l-1,2.25a7.783,7.783,0,0,0-5-1.8,4.457,4.457,0,0,0-2.58.66,2.121,2.121,0,0,0-.95,1.84,1.692,1.692,0,0,0,.84,1.51,9.921,9.921,0,0,0,2.86,1,19.21,19.21,0,0,1,3.47,1.07,5.065,5.065,0,0,1,2,1.5,3.68,3.68,0,0,1,.71,2.31,4.464,4.464,0,0,1-.81,2.649,5,5,0,0,1-2.36,1.731,9.618,9.618,0,0,1-3.59.61A12.025,12.025,0,0,1,351.239-129.308Z" fill="#ffca1a"/>
  </g>
</svg>
